<mxfile host="app.diagrams.net" modified="2021-12-01T10:30:04.285Z" agent="5.0 (Windows NT 10.0; Win64; x64) AppleWebKit/537.36 (KHTML, like Gecko) Chrome/96.0.4664.55 Safari/537.36 Edg/96.0.1054.34" etag="T_PhlcqeUtWvWIscalmJ" version="15.8.7" type="github">
  <diagram id="FPbtGPluSUEM7qVPP3g_" name="Page-1">
    <mxGraphModel dx="1038" dy="583" grid="1" gridSize="10" guides="1" tooltips="1" connect="1" arrows="1" fold="1" page="1" pageScale="1" pageWidth="827" pageHeight="1169" math="0" shadow="0">
      <root>
        <mxCell id="0" />
        <mxCell id="1" parent="0" />
        <mxCell id="1D3tvNDJF3jT0A6tG9uk-1" value="Node" style="rounded=1;whiteSpace=wrap;html=1;" vertex="1" parent="1">
          <mxGeometry x="380" y="230" width="116" height="40" as="geometry" />
        </mxCell>
        <mxCell id="1D3tvNDJF3jT0A6tG9uk-2" value="LS1" style="rounded=1;whiteSpace=wrap;html=1;" vertex="1" parent="1">
          <mxGeometry x="230" y="320" width="116" height="40" as="geometry" />
        </mxCell>
        <mxCell id="1D3tvNDJF3jT0A6tG9uk-3" value="LS2" style="rounded=1;whiteSpace=wrap;html=1;" vertex="1" parent="1">
          <mxGeometry x="390" y="320" width="116" height="40" as="geometry" />
        </mxCell>
        <mxCell id="1D3tvNDJF3jT0A6tG9uk-4" value="LS3" style="rounded=1;whiteSpace=wrap;html=1;" vertex="1" parent="1">
          <mxGeometry x="550" y="320" width="116" height="40" as="geometry" />
        </mxCell>
        <mxCell id="1D3tvNDJF3jT0A6tG9uk-6" value="ENT1" style="rounded=1;whiteSpace=wrap;html=1;" vertex="1" parent="1">
          <mxGeometry x="230" y="400" width="50" height="40" as="geometry" />
        </mxCell>
        <mxCell id="1D3tvNDJF3jT0A6tG9uk-8" value="ENT2" style="rounded=1;whiteSpace=wrap;html=1;" vertex="1" parent="1">
          <mxGeometry x="296" y="400" width="50" height="40" as="geometry" />
        </mxCell>
        <mxCell id="1D3tvNDJF3jT0A6tG9uk-11" value="ENT1" style="rounded=1;whiteSpace=wrap;html=1;" vertex="1" parent="1">
          <mxGeometry x="390" y="400" width="50" height="40" as="geometry" />
        </mxCell>
        <mxCell id="1D3tvNDJF3jT0A6tG9uk-12" value="ENT2" style="rounded=1;whiteSpace=wrap;html=1;" vertex="1" parent="1">
          <mxGeometry x="456" y="400" width="50" height="40" as="geometry" />
        </mxCell>
        <mxCell id="1D3tvNDJF3jT0A6tG9uk-13" value="ENT1" style="rounded=1;whiteSpace=wrap;html=1;" vertex="1" parent="1">
          <mxGeometry x="550" y="400" width="50" height="40" as="geometry" />
        </mxCell>
        <mxCell id="1D3tvNDJF3jT0A6tG9uk-14" value="ENT2" style="rounded=1;whiteSpace=wrap;html=1;" vertex="1" parent="1">
          <mxGeometry x="616" y="400" width="50" height="40" as="geometry" />
        </mxCell>
        <mxCell id="1D3tvNDJF3jT0A6tG9uk-15" value="" style="shape=curlyBracket;whiteSpace=wrap;html=1;rounded=1;" vertex="1" parent="1">
          <mxGeometry x="200" y="230" width="20" height="120" as="geometry" />
        </mxCell>
        <mxCell id="1D3tvNDJF3jT0A6tG9uk-16" value="" style="shape=curlyBracket;whiteSpace=wrap;html=1;rounded=1;" vertex="1" parent="1">
          <mxGeometry x="200" y="350" width="20" height="90" as="geometry" />
        </mxCell>
      </root>
    </mxGraphModel>
  </diagram>
</mxfile>
